/* XPM */
static char *Free_Converter_com_dakecoin32_10704103[] = {
/* columns rows colors chars-per-pixel */
"32 32 107 2 ",
"   c #936419",
".  c #886927",
"X  c #896C2B",
"o  c #976E24",
"O  c #9B7124",
"+  c #93722B",
"@  c #977D39",
"#  c #9D823A",
"$  c #B6852A",
"%  c #B3923C",
"&  c #C18C2B",
"*  c #C7902B",
"=  c #CD9129",
"-  c #C49030",
";  c #CC9A34",
":  c #C39738",
">  c #C49B3C",
",  c #C99D39",
"<  c #D19D35",
"1  c #DEA333",
"2  c #D4A339",
"3  c #E7AB27",
"4  c #ECA926",
"5  c #ECAD2B",
"6  c #F2AF2E",
"7  c #E4AB36",
"8  c #ECAF36",
"9  c #ECB131",
"0  c #ECB339",
"q  c #EEB93B",
"w  c #F4B333",
"e  c #F6B739",
"r  c #F8B739",
"t  c #F6B93C",
"y  c #F9BB3D",
"u  c #FFC23F",
"i  c #9B8842",
"p  c #BA9F47",
"a  c #BCA54F",
"s  c #BDA750",
"d  c #CCAC4C",
"f  c #D2AB47",
"g  c #DAAE44",
"h  c #C5AE54",
"j  c #C9B155",
"k  c #CAB858",
"l  c #D3B754",
"z  c #DABE57",
"x  c #D7BE5A",
"c  c #EEBE42",
"v  c #F6BD41",
"b  c #F8BE41",
"n  c #D7C45F",
"m  c #DDC25B",
"M  c #F3C246",
"N  c #FCC244",
"B  c #FFCA44",
"V  c #F4C54B",
"C  c #FAC54B",
"Z  c #F4CC4F",
"A  c #F9C94F",
"S  c #FDD545",
"D  c #FED549",
"F  c #FDDA4B",
"G  c #EEC856",
"H  c #E1C45B",
"J  c #EECE5F",
"K  c #F7CB51",
"L  c #F9CB53",
"P  c #F9CF58",
"I  c #F6D255",
"U  c #FCD255",
"Y  c #FDDC54",
"T  c #F7D259",
"R  c #FAD35C",
"E  c #FDDD5C",
"W  c #FFE157",
"Q  c #FFE05B",
"!  c #E6CC61",
"~  c #E8D566",
"^  c #FBD661",
"/  c #F5D966",
"(  c #FCDD63",
")  c #F3DB6A",
"_  c #FCDF6A",
"`  c #FCDF72",
"'  c #FADF7D",
"]  c #FFE164",
"[  c #F5E16D",
"{  c #FDE26B",
"}  c #FFEA6D",
"|  c #FEE670",
" . c #FFED71",
".. c #FBE07E",
"X. c #FFF472",
"o. c #FFFB76",
"O. c #FFFC79",
"+. c #FBE283",
"@. c #F6E28B",
"#. c #FBE48C",
"$. c #FBE694",
"%. c #F3E39F",
"&. c #FCE799",
"*. c #FBE99D",
"=. c #FBE9A3",
"-. c #FAEAA8",
";. c None",
/* pixels */
";.;.;.;.;.;.;.;.;.;.;.;.;.;.;.) / ;.;.;.;.;.;.;.;.;.;.;.;.;.;.;.",
";.;.;.;.;.;.;.;.;.;.=.| ( ] Q / { Q ] { | $.;.;.;.;.;.;.;.;.;.;.",
";.;.;.;.;.;.;.;.#.E Y R T K V u t M V Z Y E E +.;.;.;.;.;.;.;.;.",
";.;.;.;.;.;.;.( Y ( L v r e e y t e w w 9 c R E ( ;.;.;.;.;.;.;.",
";.;.;.;.;.;.D Q P b r y b v b b N v N N b w 5 v ] F *.;.;.;.;.;.",
";.;.;.;.;.S ( K e y b b b b b b N y v y v N b 5 9 ] F -.;.;.;.;.",
";.;.;.;.D ( C e b b b b b b b b v v N N v b y C 6 3 / F ;.;.;.;.",
";.;.;.( E A e v B N t y y b b b v v N y t v t b C w 5 E E ;.;.;.",
";.;.&.F R r b N : J ] R R b y b b N 7 g / R ( L r C 4 c Y +.;.;.",
";.;.Y ( v y b B $ i O.{ | L r b v B ; m  .| _ v y y N 4 I E ;.;.",
";.*.Y L r b b b S o h X.( { b y B 1 d  .( { V r N v C 6 q W $.;.",
";.` E M y b y v B 0 X ) { { R y y : / { | P e b v v y N 5 I { ;.",
";.( R t b b b b t D & # O.( { U = l  .( / b y b v v y C 5 V ] ;.",
";.E U r b b b b b b B o j X.{ R f _ ( { V r b b v N v v w c Q ;.",
"%.Y L y b b b b b v B 7 X [ ] / { _ { R r v b b b b v N e t ] ..",
"/ { A y b b b v b b t D & #  .( ( _ ^ v y b b b b b v N e q _ ( ",
"/ { A r b b b b b b y B 8 % | ( ( ` R y y b b b b v b b t q ` ( ",
"@.Q L r b v b b b b b y , _ ] ( } ( { R e v b b b b b b t v ( ' ",
";.E R r b b b b b b N < m  .] J p | ( { K e b b b b b b w M W ;.",
";.( R t y b b b v B 7 d  .( | U   s o.( _ N y b b b b b 6 V ] ;.",
";._ E v y b b b N w > [ ] { R b e . ~ { { ( y y b b b b 9 I ] ;.",
";.&.Y P e b b b u ; ! } / _ v t D * @ o.( { P y b b b e M Y #.;.",
";.;.Y ( b y t B 7 H O.| | K r b b B O s O.{ X.U t v N 6 I Y ;.;.",
";.;.#.F P r N 0 % n z x G y y b v B q + k m x m N b w V Y +.;.;.",
";.;.;.E ( C y q 2 < ; ; 0 b b b b b B 7 & < ; 2 N y q E Y ;.;.;.",
";.;.;.;.S ( N y B B B B b b b b b b b B B B B N r 0 ( D ;.;.;.;.",
";.;.;.;.-.S / C e t N v b b b b b b b b b b b e v ( D $.;.;.;.;.",
";.;.;.;.;.=.D ] P v e y b b b b b b b b y r t K E F $.;.;.;.;.;.",
";.;.;.;.;.;.;.E Y E A v r r r y t t t y v A ^ Y Y ;.;.;.;.;.;.;.",
";.;.;.;.;.;.;.;.+.E E E R L A C C A L P E E Y +.;.;.;.;.;.;.;.;.",
";.;.;.;.;.;.;.;.;.;.#._ Q E ( { { ( E ( _ +.;.;.;.;.;.;.;.;.;.;.",
";.;.;.;.;.;.;.;.;.;.;.;.;.;...( ( ..;.;.;.;.;.;.;.;.;.;.;.;.;.;."
};
