/* XPM */
static char *Free_Converter_com_dakecoin16_13874103[] = {
/* columns rows colors chars-per-pixel */
"16 16 176 2 ",
"   c #C7902A",
".  c #C39636",
"X  c #CF9C33",
"o  c #C79D3B",
"O  c #C39C3E",
"+  c #DEA83A",
"@  c #F0AF28",
"#  c #F1B223",
"$  c #F2B326",
"%  c #F5B62A",
"&  c #F3B828",
"*  c #F4B92A",
"=  c #E0A532",
"-  c #E5AD3A",
";  c #E1AE3E",
":  c #EEB036",
">  c #E6B23E",
",  c #E8B03D",
"<  c #EDB43C",
"1  c #F5B333",
"2  c #F5B633",
"3  c #F1B035",
"4  c #F4B334",
"5  c #F4B335",
"6  c #F3B535",
"7  c #F5B734",
"8  c #F5B537",
"9  c #F7B637",
"0  c #F5BD30",
"q  c #FABE31",
"w  c #F9BE33",
"e  c #FBBF32",
"r  c #FDBE33",
"t  c #F6B638",
"y  c #F6B739",
"u  c #F7B739",
"i  c #F6B73A",
"p  c #F8B63A",
"a  c #F4BA39",
"s  c #F7B83A",
"d  c #F7B83B",
"f  c #F7B93B",
"g  c #F4BB3A",
"h  c #F4B93D",
"j  c #F7BA3C",
"k  c #F7BA3D",
"l  c #F7BA3E",
"z  c #F8B93A",
"x  c #F8B83B",
"c  c #F8B93B",
"v  c #F8BA3B",
"b  c #F8BB3B",
"n  c #FBBB3A",
"m  c #FEBB39",
"M  c #FFBD3A",
"N  c #F8B93C",
"B  c #F8BA3C",
"V  c #F8BB3E",
"C  c #FBBC3C",
"Z  c #F8BF3D",
"A  c #F8BC3E",
"S  c #F9BD3F",
"D  c #FDBD3C",
"F  c #FCBD3F",
"G  c #F4C02F",
"H  c #F6C232",
"J  c #F9C135",
"K  c #F9C234",
"L  c #F9C137",
"P  c #F9C236",
"I  c #FFC235",
"U  c #F6C936",
"Y  c #F7C238",
"T  c #F6C539",
"R  c #F8C03F",
"E  c #FFC23E",
"W  c #F7CB38",
"Q  c #F9CC38",
"!  c #FACB3E",
"~  c #FACA3F",
"^  c #FACB3F",
"/  c #F9CD3C",
"(  c #FDD23F",
")  c #D1AA45",
"_  c #DBAE42",
"`  c #D1AF4B",
"'  c #D4AF4A",
"]  c #D0B959",
"[  c #D6BF5D",
"{  c #E6B646",
"}  c #E4BC4F",
"|  c #F7BD40",
" . c #F7BD41",
".. c #F9BC40",
"X. c #F8BD40",
"o. c #F9BD40",
"O. c #F9BD41",
"+. c #FABD40",
"@. c #F8BE40",
"#. c #F8BE41",
"$. c #F8BD42",
"%. c #F8BE42",
"&. c #F8BF42",
"*. c #F9BF42",
"=. c #F7C044",
"-. c #F9C142",
";. c #F9C143",
":. c #FAC042",
">. c #FEC140",
",. c #FCC340",
"<. c #FCC243",
"1. c #FFC542",
"2. c #FCC344",
"3. c #FEC544",
"4. c #FEC446",
"5. c #FEC646",
"6. c #F9CB41",
"7. c #FACA40",
"8. c #F9C64C",
"9. c #FFC84A",
"0. c #FBCA4F",
"q. c #FBD241",
"w. c #FDD342",
"e. c #FCD343",
"r. c #EDCD5C",
"t. c #F7CA52",
"y. c #FBCF56",
"u. c #FCD055",
"i. c #FDD156",
"p. c #F6D45E",
"a. c #FAD058",
"s. c #DFCC64",
"d. c #E8CF64",
"f. c #E8D569",
"g. c #EAD66A",
"h. c #F0D363",
"j. c #F8D963",
"k. c #F9D963",
"l. c #FADA62",
"z. c #FBDB62",
"x. c #FFDB60",
"c. c #FADB64",
"v. c #F9DC67",
"b. c #FCDD67",
"n. c #F2DA6B",
"m. c #F7DB6B",
"M. c #F8DC6A",
"N. c #F8DC6B",
"B. c #F8DF6B",
"V. c #FCDD68",
"C. c #FCDE6A",
"Z. c #FCDF6C",
"A. c #FCDF6E",
"S. c #F7DD71",
"D. c #F5E06C",
"F. c #FAE16C",
"G. c #FAE16D",
"H. c #FDE071",
"J. c #FFE870",
"K. c #FFE971",
"L. c #FEE872",
"P. c #FFEB73",
"I. c #FFEC73",
"U. c #FFED75",
"Y. c #FFF477",
"T. c #FFF777",
"R. c #FBE688",
"E. c #FBE78A",
"W. c #FBE68B",
"Q. c #FCE789",
"!. c #FBE68C",
"~. c #FBE78C",
"^. c #FCE990",
"/. c #FBE994",
"(. c #FCF0AA",
"). c None",
/* pixels */
").).).).).).Q.M.m.W.).).).).).).",
").).).).A.6.Y -.Z 0 Y M.).).).).",
").).).e.q 9 i j Z 9 4 $ W ).).).",
").).q.7 +.2.B *.*.*.*...@ U ).).",
").H.q 4 ) B.y.B i { F.a.9 $ c.).",
").^ d 1.X ] Y.3.= d.J. .+.4 G ).",
"/.K d *.E . f.x.} J.8.i *.j & Q.",
"S.,.j  .3.: O D.L.y.i *. ...a c.",
"m.2.j *.,.B _ n.I.i.7 *.*...d j.",
"^.K d *.D ; F.p.` L.0.i ..B * !.",
").6.i ,.< h.U.3.  [ T.9...7 H ).",
").A.r 3 ' g.t.B Z o s.r.d % l.).",
").).( 7 - > j *.3.d + , 7 W ).).",
").).).e.I m i j j Z M r ^ (.).).",
").).).).C.^ K *.;.Y ^ l.).).).).",
").).).).).).Q.C.V.Q.).).).).).)."
};
