/* XPM */
static char *Free_Converter_com_dakecoin64_66534103[] = {
/* columns rows colors chars-per-pixel */
"64 64 169 2 ",
"   c #3C2609",
".  c #3A290C",
"X  c #3E2F10",
"o  c #412A05",
"O  c #432C09",
"+  c #4E330C",
"@  c #473414",
"#  c #483515",
"$  c #4E3A16",
"%  c #533810",
"&  c #5A471E",
"*  c #684411",
"=  c #6E4A12",
"-  c #714D13",
";  c #785514",
":  c #594720",
">  c #645323",
",  c #6E5A2A",
"<  c #77602C",
"1  c #7B6330",
"2  c #815D1A",
"3  c #8F651F",
"4  c #91671D",
"5  c #936F26",
"6  c #8E702A",
"7  c #9C7323",
"8  c #94772E",
"9  c #9B752B",
"0  c #836C32",
"q  c #957C3C",
"w  c #A27525",
"e  c #A67925",
"r  c #AA7A26",
"t  c #A57929",
"y  c #AC7E2B",
"u  c #B17F27",
"i  c #A27F32",
"p  c #9B853E",
"a  c #B68226",
"s  c #BF8322",
"d  c #B38129",
"f  c #BD8A2C",
"g  c #A38335",
"h  c #A4873B",
"j  c #A3883B",
"k  c #B08C37",
"l  c #B08F3A",
"z  c #DB9204",
"x  c #DD970D",
"c  c #DD990D",
"v  c #DF9F18",
"b  c #E1970C",
"n  c #E1990E",
"m  c #E39C15",
"M  c #E39F19",
"N  c #DEA11A",
"B  c #E5A31C",
"V  c #E9A51E",
"C  c #C28C2C",
"Z  c #C6932E",
"A  c #CC942F",
"S  c #D1992E",
"D  c #C09235",
"F  c #CA9531",
"G  c #CC9A33",
"H  c #D39D32",
"J  c #DFA434",
"K  c #E4A622",
"L  c #EAA622",
"P  c #E6A927",
"I  c #EBA926",
"U  c #E7AE2D",
"Y  c #EDAD2B",
"T  c #F0AE2D",
"R  c #E9B12F",
"E  c #E1A636",
"W  c #E3AB35",
"Q  c #EBAF37",
"!  c #E7B432",
"~  c #E9B232",
"^  c #EDB53A",
"/  c #EDBB3C",
"(  c #F2B333",
")  c #F5B63A",
"_  c #F8B73A",
"`  c #F7B93B",
"'  c #F8BB3D",
"]  c #FEC03F",
"[  c #A48B43",
"{  c #B29644",
"}  c #B49A4A",
"|  c #BA9C4A",
" . c #BDA24C",
".. c #BAA550",
"X. c #C2A64D",
"o. c #C5AB4D",
"O. c #C3AB52",
"+. c #CBB352",
"@. c #D2B656",
"#. c #D7BD58",
"$. c #EEBE41",
"%. c #E8B74A",
"&. c #E9BC49",
"*. c #F6BD41",
"=. c #F8BE41",
"-. c #DEC157",
";. c #DEC25E",
":. c #EEC042",
">. c #EEC348",
",. c #F7C146",
"<. c #FCC244",
"1. c #FFCB46",
"2. c #F3C54C",
"3. c #FBC44A",
"4. c #F3CA4E",
"5. c #FCC94D",
"6. c #FCD445",
"7. c #FDD54C",
"8. c #FED94F",
"9. c #E5C75F",
"0. c #F4C550",
"q. c #F4CC54",
"w. c #FACC54",
"e. c #F5CE5A",
"r. c #FACF59",
"t. c #F6D256",
"y. c #FCD653",
"u. c #FCD854",
"i. c #F5D35B",
"p. c #FBD45C",
"a. c #FCDA5C",
"s. c #E2C860",
"d. c #E9CE65",
"f. c #EDD466",
"g. c #EFD969",
"h. c #F4D661",
"j. c #FBD760",
"k. c #F7D964",
"l. c #FCDC65",
"z. c #F1DB6D",
"x. c #FCDD6A",
"c. c #EEDD75",
"v. c #EFDC7A",
"b. c #FCDE74",
"n. c #FADF7A",
"m. c #FEE167",
"M. c #F5E16E",
"N. c #FEE26C",
"B. c #FFEC6E",
"V. c #FFF16F",
"C. c #FEE572",
"Z. c #FFEA74",
"A. c #FBE17D",
"S. c #FFE978",
"D. c #FFF373",
"F. c #FFFD76",
"G. c #FFFF7A",
"H. c #EFDD82",
"J. c #F0E184",
"K. c #FAE183",
"L. c #FBE58C",
"P. c #FBE694",
"I. c #FBE89E",
"U. c #EFE1A8",
"Y. c #FBEAA4",
"T. c #F1E2A9",
"R. c #FBEBAD",
"E. c #F0E9C6",
"W. c None",
/* pixels */
"W.W.W.W.W.W.W.W.W.W.W.W.W.W.W.W.W.W.W.W.W.W.W.W.W.W.W.W.W.W.J.i.i.c.W.W.W.W.W.W.W.W.W.W.W.W.W.W.W.W.W.W.W.W.W.W.W.W.W.W.W.W.W.W.",
"W.W.W.W.W.W.W.W.W.W.W.W.W.W.W.W.W.W.W.W.W.W.W.W.W.W.P.x.x.b.x.l.k.l.b.x.b.L.W.W.W.W.W.W.W.W.W.W.W.W.W.W.W.W.W.W.W.W.W.W.W.W.W.W.",
"W.W.W.W.W.W.W.W.W.W.W.W.W.W.W.W.W.W.W.W.W.W.P.b.a.8.y.a.a.a.l.x.x.l.a.a.a.8.y.a.l.L.W.W.W.W.W.W.W.W.W.W.W.W.W.W.W.W.W.W.W.W.W.W.",
"W.W.W.W.W.W.W.W.W.W.W.W.W.W.W.W.W.W.W.W.n.u.8.a.l.l.l.x.N.N.N.N.C.C.N.N.l.l.l.l.a.y.8.x.I.W.W.W.W.W.W.W.W.W.W.W.W.W.W.W.W.W.W.W.",
"W.W.W.W.W.W.W.W.W.W.W.W.W.W.W.W.W.W.x.7.8.l.l.l.N.C.m.k.i.t.4.5.2.4.q.p.a.N.Z.C.x.l.l.a.8.a.I.W.W.W.W.W.W.W.W.W.W.W.W.W.W.W.W.W.",
"W.W.W.W.W.W.W.W.W.W.W.W.W.W.W.W.b.6.a.l.l.N.C.l.t.0.,.^ ( ( ( T Y Y Y T U ~ / 4.l.C.C.l.l.a.6.a.W.W.W.W.W.W.W.W.W.W.W.W.W.W.W.W.",
"W.W.W.W.W.W.W.W.W.W.W.W.W.W.L.7.u.x.l.x.N.p.2.' ` ) _ ' ] ,.<.,.<.3.<.=.=.( I I I U 4.N.C.x.l.a.7.A.W.W.W.W.W.W.W.W.W.W.W.W.W.W.",
"W.W.W.W.W.W.W.W.W.W.W.W.W.a.7.l.l.x.N.j.5./ _ =.=.=.' ,.] :.=.=.=.=.=.=.=.=.3.3.=.I B K >.C.Z.l.l.7.u.W.W.W.W.W.W.W.W.W.W.W.W.W.",
"W.W.W.W.W.W.W.W.W.W.W.W.8.y.l.l.N.l.5.` ` =.=.=.*.' ' <.' ' ,.*.=.=.=.=.=.=.*.*.<.<.3.( m L q.S.x.l.u.6.R.W.W.W.W.W.W.W.W.W.W.W.",
"W.W.W.W.W.W.W.W.W.W.W.7.u.x.x.N.p.' _ *.=.=.=.=.<.,.*.' ,.,.' ' =.=.=.=.' ,.<.' ' ,.=.,.3.T x ! C.N.l.l.6.W.W.W.W.W.W.W.W.W.W.W.",
"W.W.W.W.W.W.W.W.W.W.6.a.l.N.N.w.` ' <.=.=.=.*.=.' *.' ,.' <.*.<.=.=.=.=.' *.*.' =.=.=.=.=.3.=.m K x.Z.l.l.6.W.W.W.W.W.W.W.W.W.W.",
"W.W.W.W.W.W.W.W.W.7.a.l.x.l.,.) ' *.' =.=.=.=.=.' ,.,.' ,.' ' <.=.=.=.=.<.' ,.<.=.=.=.=.=.=.=.3.K c t.S.l.a.6.Y.W.W.W.W.W.W.W.W.",
"W.W.W.W.W.W.W.W.7.a.l.N.l.=._ =.=.=.=.=.=.=.*.<.] ,.' ,.=.=.=.*.=.=.=.=.=.=.' *.=.=.=.=.=.=.=.=.5.T z q.S.l.l.6.W.W.W.W.W.W.W.W.",
"W.W.W.W.W.W.W.l.y.l.N.l.=._ =.=.=.=.=.=.=.=.*.*.*.*.] ' =.=.=.=.=.=.*.=.=.=.<.' =.=.=.=.=.=.=.=.=.3.( z q.S.l.a.y.W.W.W.W.W.W.W.",
"W.W.W.W.W.W.P.6.l.l.x.,._ =.=.=.=.=.=.=.' <.*.' *.] *.*.=.=.,.' =.=.=.=.=.=.=.<.' =.=.=.=.=.=.=.=.=.3.T x l.C.l.8.b.W.W.W.W.W.W.",
"W.W.W.W.W.W.7.l.l.N.w.` =.=.=.*.<.<._ ) ` ` ` ` ` ` ' ,.=.=.' ,.=.=.=.=.=.*.<.' ` ` ` ) ' ) ) =.<.=.=.5.V N C.x.l.6.W.W.W.W.W.W.",
"W.W.W.W.W.x.8.l.N.r.` =.=.=.=.<.J &.l.w.w.r.r.w.p.w.` <.' *.' *.=.=.=.=.<.<.E %.r.r.r.r.r.r.p.0.` =.=.,.3.n ~ Z.l.a.u.W.W.W.W.W.",
"W.W.W.W.W.6.x.N.l.' ' =.=.=.=.1.A & z.D.x.N.N.N.N.N.,._ *.<.<.' =.=.=.=.<.Q 9 g.B.N.m.N.x.C.x.*.' =.=.' <.=.z q.Z.l.6.P.W.W.W.W.",
"W.W.W.W.l.a.l.N.4.` ,.*.=.=.=.<.1.- , G.l.l.l.l.l.N.p._ *.' <.,.=.=.=.=.6.r X.D.l.l.l.l.l.N.0._ <.=.=.=.=.3.I M C.x.l.y.W.W.W.W.",
"W.W.W.W.6.l.N.j.` ] ' ' =.=.=.=.1./ O | F.j.l.l.l.l.N.0.` =.*.' =.=.=.<.E g B.l.l.l.l.l.N.i._ =.=.=.=.=.=.=.3.b / S.l.6.P.W.W.W.",
"W.W.W.b.u.l.N.0.` ,.' <.=.=.=.=.<.1.f X z.V.l.l.l.l.N.l.' _ =.=.=.=.=.1.7 @.D.l.l.l.l.x.k./ ' =.=.=.=.=.=.' 3.T v N.m.l.l.W.W.W.",
"W.W.W.y.l.x.j.' ' *.,.' *.=.=.=.*.<.7.; , F.l.l.l.l.l.N.r.` =.=.=.=.1.Z j D.l.l.l.l.l.N.0.` =.=.=.=.=.=.=.=.=.3.n :.C.l.6.W.W.W.",
"W.W.P.8.l.N.w._ <.' ,.*.] *.,.' =.' 1.' o } G.l.l.l.l.l.N.3._ =.=.<.` 5 f.N.l.l.l.l.N.i._ =.=.=.=.=.*.=.=.=.=.3.I K C.l.y.A.W.W.",
"W.W.x.a.l.x.,.` ' ,.' ' <.*.' ,.=.=.' 7.C $ z.B.l.l.l.l.x.l.' =.=.7.r | D.l.l.l.l.x.k.*.' =.=.=.=.=.=.=.=.=.=.,.` M p.N.a.a.W.W.",
"W.W.a.l.x.p.' ' ,.<.*.' <.' ,.' =.=.*.<.7.- 1 G.l.l.l.l.l.N.w._ <.E 8 N.m.l.l.l.l.C.0._ *.*.=.=.=.=.=.=.=.=.=.=.3.M :.C.l.y.W.W.",
"W.W.8.l.N.r._ <.*.' ' ,.' ,.' ,.=.=.<.' 1.^   O.F.j.l.l.l.m.l.,.<.7 @.V.l.l.l.l.N.h.) *.=.' =.=.=.=.=.=.=.=.=.=.<.I ! C.l.8.L.W.",
"W.L.y.l.N.5.` ' ' ,.<.' ' ' *.*.=.=.*.=.=.7.u # M.B.l.l.l.l.N.a.C h V.l.l.l.l.l.l.*.' =.=.=.=.=.=.=.=.=.=.=.=.=.<.( K x.x.8.A.W.",
"W.b.a.l.l.,.' ,.<.*.' ,.,.' ,.] =.=.=.=.' <.7.- < G.l.l.l.l.N.N.k 9.B.l.l.l.l.N.0._ =.=.=.=.=.=.=.=.=.=.=.=.=.=.<.` B p.N.l.x.W.",
"E.b.a.m.l.=.' *.' *.*.<.' *.,.' =.=.,.' <.' 1./ o X.F.l.l.l.l.l.m.N.l.l.l.l.N.i._ =.=.=.=.=.=.=.=.=.=.=.=.=.=.=.=.,.M 4.N.a.l.W.",
"T.x.a.x.l.' ' <.' ,.' ,.' ,.*.*.' *.' ,.*.*.' 7.d @ M.N.l.l.l.l.l.l.l.l.l.N.l.*.' =.=.=.=.=.=.=.=.=.=.=.=.=.=.=.=.<.B :.Z.l.x.K.",
"H.x.l.x.p.' =.*.<.,.' *.] ,.' ] <.,.' *.<.,.' <.7.* 0 G.l.l.l.l.l.l.l.l.j.b.0.) =.=.=.=.=.=.=.=.=.=.=.=.=.=.=.=.=.3.B / C.l.l.b.",
"f.l.l.N.p._ ] *.' *.*.] *.*.,.' *.' <.' ' *.*.=.1.^ % | V.l.l.l.l.l.l.l.x.e.*.=.=.=.=.=.=.=.=.=.=.=.=.=.=.=.=.=.=.<.V / C.l.l.l.",
"h.l.l.N.p.` =.=.' <.*.' *.=.=.=.=.=.=.=.=.=.=.=.=.8.4 p D.l.l.l.l.l.l.l.N.q._ =.' ,.' <.' *.' ] *.' ] *.,.' ,.' ,.,.V / C.l.l.l.",
"v.l.l.x.p.' *.=.*.' ,.<.<.=.=.=.=.=.=.=.=.=.=.=.1.J k C.m.l.l.l.l.l.l.l.l.N.3._ *.<.,.' ' ,.,.' *.,.,.*.' ' ' <.<.<.V / C.l.x.x.",
"U.b.a.N.a.=.=.=.,.' ' *.' *.=.=.=.=.=.=.=.=.' ,.<.7 ;.B.l.l.l.l.l.l.l.l.l.x.l.*.' *.=.=.<.*.<.,.,.*.' ,.' ,.] ' =.3.B / N.l.l.n.",
"W.x.a.x.l.=.' =.' ,.,.*.' <.=.=.=.=.=.=.=.=.,.1.a  .D.l.l.l.l.l.D.m.l.l.l.l.x.j._ =.=.=.' *.' *.' *.] ' ,.*.*.,.=.<.B 2.C.l.l.P.",
"W.b.a.l.l.,.` =.=.=.' <.=.=.=.=.=.=.=.=.] *.1.H g B.l.l.l.l.l.N...l.m.l.x.l.l.N.w._ *.*.' ,.<.*.' ,.' *.*.<.,.' =.=.V i.N.a.x.W.",
"W.L.y.l.m.5.` =.=.=.*.*.=.=.=.=.=.=.=.=.' 1.^ 9 g.B.l.l.l.l.N.m.+ p G.l.l.l.l.x.N.5._ *.,.*.' ' ,.' <.' *.' *.*.<.` K l.m.a.A.W.",
"W.W.7.l.N.r.` *.' ,.] *.=.=.=.=.=.=.=.=.<.<.w @.D.l.l.l.l.x.N.3.S . ;.D.l.l.l.l.N.x.*.` ' <.*.<.' ,.' ,.,.*.*.] ,.T U C.l.7.L.W.",
"W.W.u.l.N.p.` *.] ' ,.*.=.=.=.=.=.=.=.=.1.C { D.l.l.l.l.l.N.q._ 7.4 & D.m.l.l.l.l.N.p.` ' ' =.=.<.' ,.' ' ] ,.' 3.I $.Z.l.8.W.W.",
"W.W.x.a.l.l.,.' =.=.=.=.=.=.=.=.=.=.] 1.W g C.m.l.l.l.l.N.j.) =.<.<.+ [ G.l.l.l.l.l.N.w._ <.' ' =.=.=.=.=.=.=.=.<.I q.N.l.u.W.W.",
"W.W.K.y.x.N.w._ =.=.=.=.=.=.=.=.' *.<.<.7 -.V.l.l.l.l.l.N.&._ =.] 6.H . s.D.l.l.l.l.l.x.,.` *.,.=.=.=.=.=.=.=.<._ I x.l.u.C.W.W.",
"W.W.W.8.l.N.p.` =.=.=.=.=.*.=.=.<.<.1.a  .D.l.l.l.l.l.C.q.) =.=.' <.7.4 & B.m.l.l.l.l.N.l.' ` <.=.=.=.=.=.=.=.3.L / Z.l.6.Y.W.W.",
"W.W.W.x.a.l.x.2._ =.=.=.=.=.=.=.*.1.S g V.l.l.l.l.l.N.h.) =.=.=.=.<.<.<.+ [ G.l.l.l.l.l.N.r.` ' =.=.=.=.=.=.=.' K p.N.l.u.W.W.W.",
"W.W.W.Y.6.l.N.r.` *.=.=.=.=.=.' <.) 9 g.N.l.l.l.l.l.N.$.` ' ' ,.=.=.<.1.H @ d.V.l.l.l.l.l.N.w._ =.=.=.=.=.=.3.T ^ Z.l.y.K.W.W.W.",
"W.W.W.W.a.a.x.N.3.` =.=.=.=.=.<.<.e +.D.l.l.l.l.l.C.q.) <.<.*.*.=.=.' <.7.2 > F.l.l.l.l.l.x.N.,._ =.=.=.=.=.=.L l.N.l.7.W.W.W.W.",
"W.W.W.W.I.6.x.N.p.' ' =.=.=.=.<.A o.G.V.V.V.V.V.B.k./ ' *.' <.' *.=.=.*.1.<.O [ G.B.D.V.V.V.D.N.=.' =.=.=.3.I :.C.l.8.n.W.W.W.W.",
"W.W.W.W.W.a.u.l.N.r.` =.=.=.<./ 6 ..+.o.o.o.o. .-.3.' <.' ,.*.' =.=.=.=.' 6.Z $ ..+.o.o.o.o...#.w.' =.=.<.( U N.l.l.y.W.W.W.W.W.",
"W.W.W.W.W.W.6.l.l.N.3.) =.=.<./ D y y y y y y t G ] <.' =.=.=.<.=.=.=.=.' <.1.G w y y y y d t C ' <.=.<.' P k.N.l.6.I.W.W.W.W.W.",
"W.W.W.W.W.W.K.7.l.N.l.*.` =.=.=.1.1.1.1.1.1.1.1.<.] ' ,.=.=.=.*.=.=.=.=.=.*.=.1.1.1.1.1.1.1.1.<.=.*.=.,.I q.C.m.u.l.W.W.W.W.W.W.",
"W.W.W.W.W.W.W.u.u.x.N.l.) ' =.=.<.' ' ,.' <.' <.=.=.,.' =.=.=.=.=.=.=.=.=.=.*.,.' <.' ,.*.,.<.' =.=.<.T 2.C.l.a.6.W.W.W.W.W.W.W.",
"W.W.W.W.W.W.W.W.6.a.l.N.p.' ' =.*.' <.' *.*.,.' =.=.$.] =.=.=.=.=.=.=.=.*.=.*.] *.' <.' ,.' =.=.=.<.T $.C.l.l.6.Y.W.W.W.W.W.W.W.",
"W.W.W.W.W.W.W.W.R.6.a.l.N.p.=.` ] *.*.<.,.' ' <.=.=.=.=.=.=.=.=.=.=.=.=.*.*.,.' <.,.' ,.=.=.=.=.' ( 2.N.N.l.6.L.W.W.W.W.W.W.W.W.",
"W.W.W.W.W.W.W.W.W.W.6.l.x.N.l.3._ ' ,.' ' ,.*.*.=.=.=.*.=.=.=.=.=.=.=.=.] ' ' ,.' *.] ' =.=.<._ ) q.C.l.l.6.K.W.W.W.W.W.W.W.W.W.",
"W.W.W.W.W.W.W.W.W.W.W.6.l.l.x.x.q._ ` ' =.=.<.' =.=.=.=.=.=.=.=.=.=.=.=.*.,.,.*.' ,.*.*.=.' ) $.l.N.l.l.6.K.W.W.W.W.W.W.W.W.W.W.",
"W.W.W.W.W.W.W.W.W.W.W.Y.6.a.l.x.C.p.,._ ' =.*.*.=.=.=.=.=.=.=.=.=.=.=.=.' <.' *.] ' ,.' ` ` q.N.N.l.l.6.L.W.W.W.W.W.W.W.W.W.W.W.",
"W.W.W.W.W.W.W.W.W.W.W.W.W.8.7.l.l.N.N.r.,._ ` ' ,.*.' <.' <.' <.=.=.' ,.' ,.' ,.*.` ` =.w.l.N.x.l.u.6.Y.W.W.W.W.W.W.W.W.W.W.W.W.",
"W.W.W.W.W.W.W.W.W.W.W.W.W.W.A.7.a.l.l.N.N.r.3.*._ ` ' *.,.' ,.' =.*.,.] ' ' _ _ ' ,.w.l.N.l.l.l.7.l.W.W.W.W.W.W.W.W.W.W.W.W.W.W.",
"W.W.W.W.W.W.W.W.W.W.W.W.W.W.W.W.p.7.l.l.l.N.N.l.r.5.,.*.` ` _ ' _ _ ' ` ' ,.4.w.l.x.N.m.l.l.7.u.P.W.W.W.W.W.W.W.W.W.W.W.W.W.W.W.",
"W.W.W.W.W.W.W.W.W.W.W.W.W.W.W.W.W.P.y.8.a.x.l.l.N.N.l.l.p.r.r.w.r.w.r.p.l.l.N.N.N.l.l.l.7.y.A.W.W.W.W.W.W.W.W.W.W.W.W.W.W.W.W.W.",
"W.W.W.W.W.W.W.W.W.W.W.W.W.W.W.W.W.W.W.P.a.7.y.l.l.l.x.l.x.N.N.x.N.x.N.N.m.l.l.l.l.u.7.u.L.W.W.W.W.W.W.W.W.W.W.W.W.W.W.W.W.W.W.W.",
"W.W.W.W.W.W.W.W.W.W.W.W.W.W.W.W.W.W.W.W.W.W.A.l.8.8.a.a.l.l.l.l.l.l.l.a.a.a.u.8.p.b.I.W.W.W.W.W.W.W.W.W.W.W.W.W.W.W.W.W.W.W.W.W.",
"W.W.W.W.W.W.W.W.W.W.W.W.W.W.W.W.W.W.W.W.W.W.W.W.W.K.n.x.l.l.l.l.l.l.l.x.x.A.K.W.W.W.W.W.W.W.W.W.W.W.W.W.W.W.W.W.W.W.W.W.W.W.W.W.",
"W.W.W.W.W.W.W.W.W.W.W.W.W.W.W.W.W.W.W.W.W.W.W.W.W.W.W.W.W.K.x.l.l.x.n.P.W.W.W.W.W.W.W.W.W.W.W.W.W.W.W.W.W.W.W.W.W.W.W.W.W.W.W.W."
};
